solid OpenSCAD_Model
  facet normal -1 0 0
    outer loop
      vertex 0 22 0
      vertex 0 17.75 1.5
      vertex 0 22 1.5
    endloop
  endfacet
  facet normal -1 0 0
    outer loop
      vertex 0 17.75 1.5
      vertex 0 4.25 1.5
      vertex 0 17.75 5.5
    endloop
  endfacet
  facet normal -1 0 0
    outer loop
      vertex 0 22 0
      vertex 0 4.25 1.5
      vertex 0 17.75 1.5
    endloop
  endfacet
  facet normal -1 0 0
    outer loop
      vertex 0 0 0
      vertex 0 4.25 1.5
      vertex 0 22 0
    endloop
  endfacet
  facet normal -1 -0 0
    outer loop
      vertex 0 4.25 1.5
      vertex 0 0 0
      vertex 0 0 1.5
    endloop
  endfacet
  facet normal -1 -0 0
    outer loop
      vertex 0 17.75 5.5
      vertex 0 4.25 1.5
      vertex 0 4.25 5.5
    endloop
  endfacet
  facet normal 0 0 1
    outer loop
      vertex 1.5 4.25 1.5
      vertex 0 4.25 1.5
      vertex 1.5 1.4 1.5
    endloop
  endfacet
  facet normal 0 0 1
    outer loop
      vertex 78 22 1.5
      vertex 76.5 20.6 1.5
      vertex 78 0 1.5
    endloop
  endfacet
  facet normal 0 0 1
    outer loop
      vertex 78 22 1.5
      vertex 1.5 20.6 1.5
      vertex 76.5 20.6 1.5
    endloop
  endfacet
  facet normal -0 0 1
    outer loop
      vertex 0 22 1.5
      vertex 1.5 20.6 1.5
      vertex 78 22 1.5
    endloop
  endfacet
  facet normal 0 0 1
    outer loop
      vertex 0 17.75 1.5
      vertex 1.5 20.6 1.5
      vertex 0 22 1.5
    endloop
  endfacet
  facet normal 0 0 1
    outer loop
      vertex 1.5 20.6 1.5
      vertex 0 17.75 1.5
      vertex 1.5 17.75 1.5
    endloop
  endfacet
  facet normal -0 0 1
    outer loop
      vertex 76.5 1.4 1.5
      vertex 78 0 1.5
      vertex 76.5 20.6 1.5
    endloop
  endfacet
  facet normal -0 0 1
    outer loop
      vertex 1.5 1.4 1.5
      vertex 78 0 1.5
      vertex 76.5 1.4 1.5
    endloop
  endfacet
  facet normal 0 0 1
    outer loop
      vertex 1.5 1.4 1.5
      vertex 0 0 1.5
      vertex 78 0 1.5
    endloop
  endfacet
  facet normal 0 0 1
    outer loop
      vertex 0 0 1.5
      vertex 1.5 1.4 1.5
      vertex 0 4.25 1.5
    endloop
  endfacet
  facet normal 1 -0 0
    outer loop
      vertex 78 0 1.5
      vertex 78 22 0
      vertex 78 22 1.5
    endloop
  endfacet
  facet normal 1 0 0
    outer loop
      vertex 78 22 0
      vertex 78 0 1.5
      vertex 78 0 0
    endloop
  endfacet
  facet normal 0 1 -0
    outer loop
      vertex 78 22 0
      vertex 0 22 1.5
      vertex 78 22 1.5
    endloop
  endfacet
  facet normal 0 1 0
    outer loop
      vertex 0 22 1.5
      vertex 78 22 0
      vertex 0 22 0
    endloop
  endfacet
  facet normal 0 0 -1
    outer loop
      vertex 0 0 0
      vertex 78 22 0
      vertex 78 0 0
    endloop
  endfacet
  facet normal -0 0 -1
    outer loop
      vertex 78 22 0
      vertex 0 0 0
      vertex 0 22 0
    endloop
  endfacet
  facet normal 0 -1 0
    outer loop
      vertex 0 0 0
      vertex 78 0 1.5
      vertex 0 0 1.5
    endloop
  endfacet
  facet normal 0 -1 -0
    outer loop
      vertex 78 0 1.5
      vertex 0 0 0
      vertex 78 0 0
    endloop
  endfacet
  facet normal -0 0 1
    outer loop
      vertex 0 17.75 5.5
      vertex 1.5 4.25 5.5
      vertex 1.5 17.75 5.5
    endloop
  endfacet
  facet normal 0 0 1
    outer loop
      vertex 1.5 4.25 5.5
      vertex 0 17.75 5.5
      vertex 0 4.25 5.5
    endloop
  endfacet
  facet normal -1 0 0
    outer loop
      vertex 1.5 1.4 1.5
      vertex 1.5 4.25 3.5
      vertex 1.5 4.25 1.5
    endloop
  endfacet
  facet normal -1 -0 0
    outer loop
      vertex 1.5 4.25 3.5
      vertex 1.5 1.4 1.5
      vertex 1.5 1.4 3.5
    endloop
  endfacet
  facet normal -1 0 0
    outer loop
      vertex 1.5 17.75 1.5
      vertex 1.5 20.6 3.5
      vertex 1.5 20.6 1.5
    endloop
  endfacet
  facet normal -1 -0 0
    outer loop
      vertex 1.5 20.6 3.5
      vertex 1.5 17.75 1.5
      vertex 1.5 17.75 3.5
    endloop
  endfacet
  facet normal 1 -0 0
    outer loop
      vertex 1.5 4.25 5.5
      vertex 1.5 17.75 3.5
      vertex 1.5 17.75 5.5
    endloop
  endfacet
  facet normal 1 0 0
    outer loop
      vertex 1.5 17.75 3.5
      vertex 1.5 4.25 5.5
      vertex 1.5 4.25 3.5
    endloop
  endfacet
  facet normal 0 -1 0
    outer loop
      vertex 0 4.25 5.5
      vertex 1.5 4.25 3.5
      vertex 1.5 4.25 5.5
    endloop
  endfacet
  facet normal 0 -1 0
    outer loop
      vertex 0 4.25 1.5
      vertex 1.5 4.25 3.5
      vertex 0 4.25 5.5
    endloop
  endfacet
  facet normal 0 -1 -0
    outer loop
      vertex 1.5 4.25 3.5
      vertex 0 4.25 1.5
      vertex 1.5 4.25 1.5
    endloop
  endfacet
  facet normal 0 1 -0
    outer loop
      vertex 1.5 17.75 3.5
      vertex 0 17.75 5.5
      vertex 1.5 17.75 5.5
    endloop
  endfacet
  facet normal 0 1 0
    outer loop
      vertex 0 17.75 1.5
      vertex 1.5 17.75 3.5
      vertex 1.5 17.75 1.5
    endloop
  endfacet
  facet normal 0 1 0
    outer loop
      vertex 1.5 17.75 3.5
      vertex 0 17.75 1.5
      vertex 0 17.75 5.5
    endloop
  endfacet
  facet normal 0 0 1
    outer loop
      vertex 1.5 17.75 3.5
      vertex 76.5 20.6 3.5
      vertex 1.5 20.6 3.5
    endloop
  endfacet
  facet normal 0 0 1
    outer loop
      vertex 76.5 20.6 3.5
      vertex 1.5 17.75 3.5
      vertex 76.5 1.4 3.5
    endloop
  endfacet
  facet normal -0 0 1
    outer loop
      vertex 1.5 4.25 3.5
      vertex 76.5 1.4 3.5
      vertex 1.5 17.75 3.5
    endloop
  endfacet
  facet normal 0 0 1
    outer loop
      vertex 76.5 1.4 3.5
      vertex 1.5 4.25 3.5
      vertex 1.5 1.4 3.5
    endloop
  endfacet
  facet normal 1 -0 0
    outer loop
      vertex 76.5 1.4 3.5
      vertex 76.5 20.6 1.5
      vertex 76.5 20.6 3.5
    endloop
  endfacet
  facet normal 1 0 0
    outer loop
      vertex 76.5 20.6 1.5
      vertex 76.5 1.4 3.5
      vertex 76.5 1.4 1.5
    endloop
  endfacet
  facet normal 0 -1 0
    outer loop
      vertex 1.5 1.4 1.5
      vertex 76.5 1.4 3.5
      vertex 1.5 1.4 3.5
    endloop
  endfacet
  facet normal 0 -1 -0
    outer loop
      vertex 76.5 1.4 3.5
      vertex 1.5 1.4 1.5
      vertex 76.5 1.4 1.5
    endloop
  endfacet
  facet normal 0 1 -0
    outer loop
      vertex 76.5 20.6 1.5
      vertex 1.5 20.6 3.5
      vertex 76.5 20.6 3.5
    endloop
  endfacet
  facet normal 0 1 0
    outer loop
      vertex 1.5 20.6 3.5
      vertex 76.5 20.6 1.5
      vertex 1.5 20.6 1.5
    endloop
  endfacet
endsolid OpenSCAD_Model
