solid OpenSCAD_Model
  facet normal 0.994522 0.104529 0
    outer loop
      vertex 9.25 0 2
      vertex 9.04786 1.92318 0
      vertex 9.04786 1.92318 2
    endloop
  endfacet
  facet normal 0.994522 0.104529 0
    outer loop
      vertex 9.04786 1.92318 0
      vertex 9.25 0 2
      vertex 9.25 0 0
    endloop
  endfacet
  facet normal -0.994522 0.104529 0
    outer loop
      vertex -9.25 0 0
      vertex -9.04786 1.92318 2
      vertex -9.04786 1.92318 0
    endloop
  endfacet
  facet normal -0.994522 0.104529 0
    outer loop
      vertex -9.04786 1.92318 2
      vertex -9.25 0 0
      vertex -9.25 0 2
    endloop
  endfacet
  facet normal 0 1 -0
    outer loop
      vertex 0.966887 9.19933 0
      vertex -0.966887 9.19933 2
      vertex 0.966887 9.19933 2
    endloop
  endfacet
  facet normal 0 1 0
    outer loop
      vertex -0.966887 9.19933 2
      vertex 0.966887 9.19933 0
      vertex -0.966887 9.19933 0
    endloop
  endfacet
  facet normal 0 -1 0
    outer loop
      vertex -0.966887 -9.19933 0
      vertex 0.966887 -9.19933 2
      vertex -0.966887 -9.19933 2
    endloop
  endfacet
  facet normal 0 -1 -0
    outer loop
      vertex 0.966887 -9.19933 2
      vertex -0.966887 -9.19933 0
      vertex 0.966887 -9.19933 0
    endloop
  endfacet
  facet normal 0.743145 0.66913 0
    outer loop
      vertex 7.48341 5.43701 2
      vertex 6.18946 6.87409 0
      vertex 6.18946 6.87409 2
    endloop
  endfacet
  facet normal 0.743145 0.66913 0
    outer loop
      vertex 6.18946 6.87409 0
      vertex 7.48341 5.43701 2
      vertex 7.48341 5.43701 0
    endloop
  endfacet
  facet normal 0.951057 0.309017 0
    outer loop
      vertex 9.04786 1.92318 2
      vertex 8.4503 3.76231 0
      vertex 8.4503 3.76231 2
    endloop
  endfacet
  facet normal 0.951057 0.309017 0
    outer loop
      vertex 8.4503 3.76231 0
      vertex 9.04786 1.92318 2
      vertex 9.04786 1.92318 0
    endloop
  endfacet
  facet normal -0.587785 0.809017 0
    outer loop
      vertex -4.625 8.01073 0
      vertex -6.18946 6.87409 2
      vertex -4.625 8.01073 2
    endloop
  endfacet
  facet normal -0.587785 0.809017 0
    outer loop
      vertex -6.18946 6.87409 2
      vertex -4.625 8.01073 0
      vertex -6.18946 6.87409 0
    endloop
  endfacet
  facet normal -0.207912 0.978148 0
    outer loop
      vertex -0.966887 9.19933 0
      vertex -2.85841 8.79727 2
      vertex -0.966887 9.19933 2
    endloop
  endfacet
  facet normal -0.207912 0.978148 0
    outer loop
      vertex -2.85841 8.79727 2
      vertex -0.966887 9.19933 0
      vertex -2.85841 8.79727 0
    endloop
  endfacet
  facet normal 0.866025 -0.5 0
    outer loop
      vertex 7.48341 -5.43701 2
      vertex 8.4503 -3.76231 0
      vertex 8.4503 -3.76231 2
    endloop
  endfacet
  facet normal 0.866025 -0.5 0
    outer loop
      vertex 8.4503 -3.76231 0
      vertex 7.48341 -5.43701 2
      vertex 7.48341 -5.43701 0
    endloop
  endfacet
  facet normal 0.866025 0.5 0
    outer loop
      vertex 8.4503 3.76231 2
      vertex 7.48341 5.43701 0
      vertex 7.48341 5.43701 2
    endloop
  endfacet
  facet normal 0.866025 0.5 0
    outer loop
      vertex 7.48341 5.43701 0
      vertex 8.4503 3.76231 2
      vertex 8.4503 3.76231 0
    endloop
  endfacet
  facet normal 0.406737 0.913545 -0
    outer loop
      vertex 4.625 8.01073 0
      vertex 2.85841 8.79727 2
      vertex 4.625 8.01073 2
    endloop
  endfacet
  facet normal 0.406737 0.913545 0
    outer loop
      vertex 2.85841 8.79727 2
      vertex 4.625 8.01073 0
      vertex 2.85841 8.79727 0
    endloop
  endfacet
  facet normal 0.207912 0.978148 -0
    outer loop
      vertex 2.85841 8.79727 0
      vertex 0.966887 9.19933 2
      vertex 2.85841 8.79727 2
    endloop
  endfacet
  facet normal 0.207912 0.978148 0
    outer loop
      vertex 0.966887 9.19933 2
      vertex 2.85841 8.79727 0
      vertex 0.966887 9.19933 0
    endloop
  endfacet
  facet normal 0.587785 0.809017 -0
    outer loop
      vertex 6.18946 6.87409 0
      vertex 4.625 8.01073 2
      vertex 6.18946 6.87409 2
    endloop
  endfacet
  facet normal 0.587785 0.809017 0
    outer loop
      vertex 4.625 8.01073 2
      vertex 6.18946 6.87409 0
      vertex 4.625 8.01073 0
    endloop
  endfacet
  facet normal -0.866025 0.5 0
    outer loop
      vertex -8.4503 3.76231 0
      vertex -7.48341 5.43701 2
      vertex -7.48341 5.43701 0
    endloop
  endfacet
  facet normal -0.866025 0.5 0
    outer loop
      vertex -7.48341 5.43701 2
      vertex -8.4503 3.76231 0
      vertex -8.4503 3.76231 2
    endloop
  endfacet
  facet normal -0.743145 0.66913 0
    outer loop
      vertex -7.48341 5.43701 0
      vertex -6.18946 6.87409 2
      vertex -6.18946 6.87409 0
    endloop
  endfacet
  facet normal -0.743145 0.66913 0
    outer loop
      vertex -6.18946 6.87409 2
      vertex -7.48341 5.43701 0
      vertex -7.48341 5.43701 2
    endloop
  endfacet
  facet normal -0.951057 0.309017 0
    outer loop
      vertex -9.04786 1.92318 0
      vertex -8.4503 3.76231 2
      vertex -8.4503 3.76231 0
    endloop
  endfacet
  facet normal -0.951057 0.309017 0
    outer loop
      vertex -8.4503 3.76231 2
      vertex -9.04786 1.92318 0
      vertex -9.04786 1.92318 2
    endloop
  endfacet
  facet normal 0 0 1
    outer loop
      vertex 6 0 2
      vertex 9.25 0 2
      vertex 9.04786 1.92318 2
    endloop
  endfacet
  facet normal -0 0 1
    outer loop
      vertex 5.6749 1.9482 2
      vertex 9.04786 1.92318 2
      vertex 8.4503 3.76231 2
    endloop
  endfacet
  facet normal 0 0 1
    outer loop
      vertex 9.25 0 2
      vertex 6 0 2
      vertex 9.04786 -1.92318 2
    endloop
  endfacet
  facet normal 0 0 1
    outer loop
      vertex 4.73484 3.68528 2
      vertex 8.4503 3.76231 2
      vertex 7.48341 5.43701 2
    endloop
  endfacet
  facet normal 0 0 1
    outer loop
      vertex 5.6749 -1.9482 2
      vertex 9.04786 -1.92318 2
      vertex 6 0 2
    endloop
  endfacet
  facet normal 0 0 1
    outer loop
      vertex 4.73484 3.68528 2
      vertex 7.48341 5.43701 2
      vertex 6.18946 6.87409 2
    endloop
  endfacet
  facet normal 0 0 1
    outer loop
      vertex 9.04786 -1.92318 2
      vertex 5.6749 -1.9482 2
      vertex 8.4503 -3.76231 2
    endloop
  endfacet
  facet normal -0 0 1
    outer loop
      vertex 4.73484 -3.68528 2
      vertex 8.4503 -3.76231 2
      vertex 5.6749 -1.9482 2
    endloop
  endfacet
  facet normal 0 0 1
    outer loop
      vertex 9.04786 1.92318 2
      vertex 5.6749 1.9482 2
      vertex 6 0 2
    endloop
  endfacet
  facet normal 0 0 1
    outer loop
      vertex 8.4503 3.76231 2
      vertex 4.73484 3.68528 2
      vertex 5.6749 1.9482 2
    endloop
  endfacet
  facet normal 0 0 1
    outer loop
      vertex 3.28169 5.023 2
      vertex 6.18946 6.87409 2
      vertex 4.625 8.01073 2
    endloop
  endfacet
  facet normal 0 0 1
    outer loop
      vertex 6.18946 6.87409 2
      vertex 3.28169 5.023 2
      vertex 4.73484 3.68528 2
    endloop
  endfacet
  facet normal 0 0 1
    outer loop
      vertex 2.85841 8.79727 2
      vertex 3.28169 5.023 2
      vertex 4.625 8.01073 2
    endloop
  endfacet
  facet normal 0 0 1
    outer loop
      vertex 2.85841 8.79727 2
      vertex 1.47291 5.8164 2
      vertex 3.28169 5.023 2
    endloop
  endfacet
  facet normal 0 0 1
    outer loop
      vertex 0.966887 9.19933 2
      vertex 1.47291 5.8164 2
      vertex 2.85841 8.79727 2
    endloop
  endfacet
  facet normal 0 0 1
    outer loop
      vertex 0.966887 9.19933 2
      vertex -0.495476 5.97951 2
      vertex 1.47291 5.8164 2
    endloop
  endfacet
  facet normal -0 0 1
    outer loop
      vertex -0.966887 9.19933 2
      vertex -0.495476 5.97951 2
      vertex 0.966887 9.19933 2
    endloop
  endfacet
  facet normal -0 0 1
    outer loop
      vertex -2.85841 8.79727 2
      vertex -0.495476 5.97951 2
      vertex -0.966887 9.19933 2
    endloop
  endfacet
  facet normal 0 0 1
    outer loop
      vertex -0.495476 5.97951 2
      vertex -2.85841 8.79727 2
      vertex -2.41017 5.49464 2
    endloop
  endfacet
  facet normal -0 0 1
    outer loop
      vertex -4.625 8.01073 2
      vertex -2.41017 5.49464 2
      vertex -2.85841 8.79727 2
    endloop
  endfacet
  facet normal 0 0 1
    outer loop
      vertex -2.41017 5.49464 2
      vertex -4.625 8.01073 2
      vertex -4.06369 4.41434 2
    endloop
  endfacet
  facet normal -0 0 1
    outer loop
      vertex -6.18946 6.87409 2
      vertex -4.06369 4.41434 2
      vertex -4.625 8.01073 2
    endloop
  endfacet
  facet normal -0 0 1
    outer loop
      vertex -7.48341 5.43701 2
      vertex -4.06369 4.41434 2
      vertex -6.18946 6.87409 2
    endloop
  endfacet
  facet normal -0 0 1
    outer loop
      vertex -8.4503 3.76231 2
      vertex -5.27684 2.85568 2
      vertex -7.48341 5.43701 2
    endloop
  endfacet
  facet normal 0 0 1
    outer loop
      vertex -4.06369 4.41434 2
      vertex -7.48341 5.43701 2
      vertex -5.27684 2.85568 2
    endloop
  endfacet
  facet normal 0 0 1
    outer loop
      vertex 8.4503 -3.76231 2
      vertex 4.73484 -3.68528 2
      vertex 7.48341 -5.43701 2
    endloop
  endfacet
  facet normal 0 0 1
    outer loop
      vertex 7.48341 -5.43701 2
      vertex 4.73484 -3.68528 2
      vertex 6.18946 -6.87409 2
    endloop
  endfacet
  facet normal -0 0 1
    outer loop
      vertex 3.28169 -5.023 2
      vertex 6.18946 -6.87409 2
      vertex 4.73484 -3.68528 2
    endloop
  endfacet
  facet normal 0 0 1
    outer loop
      vertex 6.18946 -6.87409 2
      vertex 3.28169 -5.023 2
      vertex 4.625 -8.01073 2
    endloop
  endfacet
  facet normal 0 0 1
    outer loop
      vertex 3.28169 -5.023 2
      vertex 2.85841 -8.79727 2
      vertex 4.625 -8.01073 2
    endloop
  endfacet
  facet normal -0 0 1
    outer loop
      vertex 1.47291 -5.8164 2
      vertex 2.85841 -8.79727 2
      vertex 3.28169 -5.023 2
    endloop
  endfacet
  facet normal 0 0 1
    outer loop
      vertex 1.47291 -5.8164 2
      vertex 0.966887 -9.19933 2
      vertex 2.85841 -8.79727 2
    endloop
  endfacet
  facet normal -0 0 1
    outer loop
      vertex -0.495476 -5.97951 2
      vertex 0.966887 -9.19933 2
      vertex 1.47291 -5.8164 2
    endloop
  endfacet
  facet normal 0 0 1
    outer loop
      vertex -0.495476 -5.97951 2
      vertex -0.966887 -9.19933 2
      vertex 0.966887 -9.19933 2
    endloop
  endfacet
  facet normal 0 0 1
    outer loop
      vertex -2.85841 -8.79727 2
      vertex -0.495476 -5.97951 2
      vertex -2.41017 -5.49464 2
    endloop
  endfacet
  facet normal 0 0 1
    outer loop
      vertex -0.495476 -5.97951 2
      vertex -2.85841 -8.79727 2
      vertex -0.966887 -9.19933 2
    endloop
  endfacet
  facet normal 0 0 1
    outer loop
      vertex -4.625 -8.01073 2
      vertex -2.41017 -5.49464 2
      vertex -4.06369 -4.41434 2
    endloop
  endfacet
  facet normal 0 0 1
    outer loop
      vertex -2.41017 -5.49464 2
      vertex -4.625 -8.01073 2
      vertex -2.85841 -8.79727 2
    endloop
  endfacet
  facet normal 0 0 1
    outer loop
      vertex -7.48341 -5.43701 2
      vertex -4.06369 -4.41434 2
      vertex -5.27684 -2.85568 2
    endloop
  endfacet
  facet normal 0 0 1
    outer loop
      vertex -8.4503 -3.76231 2
      vertex -5.27684 -2.85568 2
      vertex -5.91817 -0.987567 2
    endloop
  endfacet
  facet normal 0 0 1
    outer loop
      vertex -4.06369 -4.41434 2
      vertex -6.18946 -6.87409 2
      vertex -4.625 -8.01073 2
    endloop
  endfacet
  facet normal 0 0 1
    outer loop
      vertex -5.27684 2.85568 2
      vertex -8.4503 3.76231 2
      vertex -5.91817 0.987567 2
    endloop
  endfacet
  facet normal -0 0 1
    outer loop
      vertex -9.04786 1.92318 2
      vertex -5.91817 0.987567 2
      vertex -8.4503 3.76231 2
    endloop
  endfacet
  facet normal 0 0 1
    outer loop
      vertex -4.06369 -4.41434 2
      vertex -7.48341 -5.43701 2
      vertex -6.18946 -6.87409 2
    endloop
  endfacet
  facet normal 0 0 1
    outer loop
      vertex -9.25 0 2
      vertex -5.91817 0.987567 2
      vertex -9.04786 1.92318 2
    endloop
  endfacet
  facet normal 0 0 1
    outer loop
      vertex -5.27684 -2.85568 2
      vertex -8.4503 -3.76231 2
      vertex -7.48341 -5.43701 2
    endloop
  endfacet
  facet normal 0 0 1
    outer loop
      vertex -5.91817 0.987567 2
      vertex -9.25 0 2
      vertex -5.91817 -0.987567 2
    endloop
  endfacet
  facet normal 0 0 1
    outer loop
      vertex -5.91817 -0.987567 2
      vertex -9.04786 -1.92318 2
      vertex -8.4503 -3.76231 2
    endloop
  endfacet
  facet normal 0 0 1
    outer loop
      vertex -5.91817 -0.987567 2
      vertex -9.25 0 2
      vertex -9.04786 -1.92318 2
    endloop
  endfacet
  facet normal -0.406737 0.913545 0
    outer loop
      vertex -2.85841 8.79727 0
      vertex -4.625 8.01073 2
      vertex -2.85841 8.79727 2
    endloop
  endfacet
  facet normal -0.406737 0.913545 0
    outer loop
      vertex -4.625 8.01073 2
      vertex -2.85841 8.79727 0
      vertex -4.625 8.01073 0
    endloop
  endfacet
  facet normal 0 0 -1
    outer loop
      vertex 6 0 0
      vertex 9.25 0 0
      vertex 9.04786 -1.92318 0
    endloop
  endfacet
  facet normal 0 0 -1
    outer loop
      vertex 5.6749 -1.9482 0
      vertex 9.04786 -1.92318 0
      vertex 8.4503 -3.76231 0
    endloop
  endfacet
  facet normal 0 0 -1
    outer loop
      vertex 9.25 0 0
      vertex 6 0 0
      vertex 9.04786 1.92318 0
    endloop
  endfacet
  facet normal 0 0 -1
    outer loop
      vertex 4.73484 -3.68528 0
      vertex 8.4503 -3.76231 0
      vertex 7.48341 -5.43701 0
    endloop
  endfacet
  facet normal 0 0 -1
    outer loop
      vertex 5.6749 1.9482 0
      vertex 9.04786 1.92318 0
      vertex 6 0 0
    endloop
  endfacet
  facet normal 0 0 -1
    outer loop
      vertex 4.73484 -3.68528 0
      vertex 7.48341 -5.43701 0
      vertex 6.18946 -6.87409 0
    endloop
  endfacet
  facet normal 0 0 -1
    outer loop
      vertex 9.04786 1.92318 0
      vertex 5.6749 1.9482 0
      vertex 8.4503 3.76231 0
    endloop
  endfacet
  facet normal 0 0 -1
    outer loop
      vertex 4.73484 3.68528 0
      vertex 8.4503 3.76231 0
      vertex 5.6749 1.9482 0
    endloop
  endfacet
  facet normal -0 0 -1
    outer loop
      vertex 9.04786 -1.92318 0
      vertex 5.6749 -1.9482 0
      vertex 6 0 0
    endloop
  endfacet
  facet normal 0 0 -1
    outer loop
      vertex 8.4503 -3.76231 0
      vertex 4.73484 -3.68528 0
      vertex 5.6749 -1.9482 0
    endloop
  endfacet
  facet normal 0 0 -1
    outer loop
      vertex 3.28169 -5.023 0
      vertex 6.18946 -6.87409 0
      vertex 4.625 -8.01073 0
    endloop
  endfacet
  facet normal 0 0 -1
    outer loop
      vertex 6.18946 -6.87409 0
      vertex 3.28169 -5.023 0
      vertex 4.73484 -3.68528 0
    endloop
  endfacet
  facet normal 0 0 -1
    outer loop
      vertex 2.85841 -8.79727 0
      vertex 3.28169 -5.023 0
      vertex 4.625 -8.01073 0
    endloop
  endfacet
  facet normal 0 0 -1
    outer loop
      vertex 2.85841 -8.79727 0
      vertex 1.47291 -5.8164 0
      vertex 3.28169 -5.023 0
    endloop
  endfacet
  facet normal 0 0 -1
    outer loop
      vertex 0.966887 -9.19933 0
      vertex 1.47291 -5.8164 0
      vertex 2.85841 -8.79727 0
    endloop
  endfacet
  facet normal 0 0 -1
    outer loop
      vertex 0.966887 -9.19933 0
      vertex -0.495476 -5.97951 0
      vertex 1.47291 -5.8164 0
    endloop
  endfacet
  facet normal 0 0 -1
    outer loop
      vertex -0.966887 -9.19933 0
      vertex -0.495476 -5.97951 0
      vertex 0.966887 -9.19933 0
    endloop
  endfacet
  facet normal 0 0 -1
    outer loop
      vertex -2.85841 -8.79727 0
      vertex -0.495476 -5.97951 0
      vertex -0.966887 -9.19933 0
    endloop
  endfacet
  facet normal -0 0 -1
    outer loop
      vertex -0.495476 -5.97951 0
      vertex -2.85841 -8.79727 0
      vertex -2.41017 -5.49464 0
    endloop
  endfacet
  facet normal 0 0 -1
    outer loop
      vertex -4.625 -8.01073 0
      vertex -2.41017 -5.49464 0
      vertex -2.85841 -8.79727 0
    endloop
  endfacet
  facet normal -0 0 -1
    outer loop
      vertex -2.41017 -5.49464 0
      vertex -4.625 -8.01073 0
      vertex -4.06369 -4.41434 0
    endloop
  endfacet
  facet normal 0 0 -1
    outer loop
      vertex -6.18946 -6.87409 0
      vertex -4.06369 -4.41434 0
      vertex -4.625 -8.01073 0
    endloop
  endfacet
  facet normal 0 0 -1
    outer loop
      vertex -7.48341 -5.43701 0
      vertex -4.06369 -4.41434 0
      vertex -6.18946 -6.87409 0
    endloop
  endfacet
  facet normal 0 0 -1
    outer loop
      vertex -8.4503 -3.76231 0
      vertex -5.27684 -2.85568 0
      vertex -7.48341 -5.43701 0
    endloop
  endfacet
  facet normal -0 0 -1
    outer loop
      vertex -4.06369 -4.41434 0
      vertex -7.48341 -5.43701 0
      vertex -5.27684 -2.85568 0
    endloop
  endfacet
  facet normal -0 0 -1
    outer loop
      vertex 8.4503 3.76231 0
      vertex 4.73484 3.68528 0
      vertex 7.48341 5.43701 0
    endloop
  endfacet
  facet normal -0 0 -1
    outer loop
      vertex 7.48341 5.43701 0
      vertex 4.73484 3.68528 0
      vertex 6.18946 6.87409 0
    endloop
  endfacet
  facet normal 0 0 -1
    outer loop
      vertex 3.28169 5.023 0
      vertex 6.18946 6.87409 0
      vertex 4.73484 3.68528 0
    endloop
  endfacet
  facet normal -0 0 -1
    outer loop
      vertex 6.18946 6.87409 0
      vertex 3.28169 5.023 0
      vertex 4.625 8.01073 0
    endloop
  endfacet
  facet normal 0 0 -1
    outer loop
      vertex 3.28169 5.023 0
      vertex 2.85841 8.79727 0
      vertex 4.625 8.01073 0
    endloop
  endfacet
  facet normal 0 0 -1
    outer loop
      vertex 1.47291 5.8164 0
      vertex 2.85841 8.79727 0
      vertex 3.28169 5.023 0
    endloop
  endfacet
  facet normal 0 0 -1
    outer loop
      vertex 1.47291 5.8164 0
      vertex 0.966887 9.19933 0
      vertex 2.85841 8.79727 0
    endloop
  endfacet
  facet normal 0 0 -1
    outer loop
      vertex -0.495476 5.97951 0
      vertex 0.966887 9.19933 0
      vertex 1.47291 5.8164 0
    endloop
  endfacet
  facet normal 0 0 -1
    outer loop
      vertex -0.495476 5.97951 0
      vertex -0.966887 9.19933 0
      vertex 0.966887 9.19933 0
    endloop
  endfacet
  facet normal 0 0 -1
    outer loop
      vertex -2.85841 8.79727 0
      vertex -0.495476 5.97951 0
      vertex -2.41017 5.49464 0
    endloop
  endfacet
  facet normal 0 0 -1
    outer loop
      vertex -0.495476 5.97951 0
      vertex -2.85841 8.79727 0
      vertex -0.966887 9.19933 0
    endloop
  endfacet
  facet normal 0 0 -1
    outer loop
      vertex -4.625 8.01073 0
      vertex -2.41017 5.49464 0
      vertex -4.06369 4.41434 0
    endloop
  endfacet
  facet normal 0 0 -1
    outer loop
      vertex -2.41017 5.49464 0
      vertex -4.625 8.01073 0
      vertex -2.85841 8.79727 0
    endloop
  endfacet
  facet normal 0 0 -1
    outer loop
      vertex -7.48341 5.43701 0
      vertex -4.06369 4.41434 0
      vertex -5.27684 2.85568 0
    endloop
  endfacet
  facet normal 0 0 -1
    outer loop
      vertex -8.4503 3.76231 0
      vertex -5.27684 2.85568 0
      vertex -5.91817 0.987567 0
    endloop
  endfacet
  facet normal 0 0 -1
    outer loop
      vertex -4.06369 4.41434 0
      vertex -6.18946 6.87409 0
      vertex -4.625 8.01073 0
    endloop
  endfacet
  facet normal -0 0 -1
    outer loop
      vertex -5.27684 -2.85568 0
      vertex -8.4503 -3.76231 0
      vertex -5.91817 -0.987567 0
    endloop
  endfacet
  facet normal 0 0 -1
    outer loop
      vertex -9.04786 -1.92318 0
      vertex -5.91817 -0.987567 0
      vertex -8.4503 -3.76231 0
    endloop
  endfacet
  facet normal 0 0 -1
    outer loop
      vertex -4.06369 4.41434 0
      vertex -7.48341 5.43701 0
      vertex -6.18946 6.87409 0
    endloop
  endfacet
  facet normal 0 0 -1
    outer loop
      vertex -9.25 0 0
      vertex -5.91817 -0.987567 0
      vertex -9.04786 -1.92318 0
    endloop
  endfacet
  facet normal 0 0 -1
    outer loop
      vertex -5.27684 2.85568 0
      vertex -8.4503 3.76231 0
      vertex -7.48341 5.43701 0
    endloop
  endfacet
  facet normal 0 0 -1
    outer loop
      vertex -5.91817 -0.987567 0
      vertex -9.25 0 0
      vertex -5.91817 0.987567 0
    endloop
  endfacet
  facet normal 0 0 -1
    outer loop
      vertex -5.91817 0.987567 0
      vertex -9.04786 1.92318 0
      vertex -8.4503 3.76231 0
    endloop
  endfacet
  facet normal -0 0 -1
    outer loop
      vertex -5.91817 0.987567 0
      vertex -9.25 0 0
      vertex -9.04786 1.92318 0
    endloop
  endfacet
  facet normal 0.207912 -0.978148 0
    outer loop
      vertex 0.966887 -9.19933 0
      vertex 2.85841 -8.79727 2
      vertex 0.966887 -9.19933 2
    endloop
  endfacet
  facet normal 0.207912 -0.978148 0
    outer loop
      vertex 2.85841 -8.79727 2
      vertex 0.966887 -9.19933 0
      vertex 2.85841 -8.79727 0
    endloop
  endfacet
  facet normal 0.587785 -0.809017 0
    outer loop
      vertex 4.625 -8.01073 0
      vertex 6.18946 -6.87409 2
      vertex 4.625 -8.01073 2
    endloop
  endfacet
  facet normal 0.587785 -0.809017 0
    outer loop
      vertex 6.18946 -6.87409 2
      vertex 4.625 -8.01073 0
      vertex 6.18946 -6.87409 0
    endloop
  endfacet
  facet normal 0.743145 -0.66913 0
    outer loop
      vertex 6.18946 -6.87409 2
      vertex 7.48341 -5.43701 0
      vertex 7.48341 -5.43701 2
    endloop
  endfacet
  facet normal 0.743145 -0.66913 0
    outer loop
      vertex 7.48341 -5.43701 0
      vertex 6.18946 -6.87409 2
      vertex 6.18946 -6.87409 0
    endloop
  endfacet
  facet normal 0.951057 -0.309017 0
    outer loop
      vertex 8.4503 -3.76231 2
      vertex 9.04786 -1.92318 0
      vertex 9.04786 -1.92318 2
    endloop
  endfacet
  facet normal 0.951057 -0.309017 0
    outer loop
      vertex 9.04786 -1.92318 0
      vertex 8.4503 -3.76231 2
      vertex 8.4503 -3.76231 0
    endloop
  endfacet
  facet normal 0.994522 -0.104529 0
    outer loop
      vertex 9.04786 -1.92318 2
      vertex 9.25 0 0
      vertex 9.25 0 2
    endloop
  endfacet
  facet normal 0.994522 -0.104529 0
    outer loop
      vertex 9.25 0 0
      vertex 9.04786 -1.92318 2
      vertex 9.04786 -1.92318 0
    endloop
  endfacet
  facet normal -0.406737 -0.913545 0
    outer loop
      vertex -4.625 -8.01073 0
      vertex -2.85841 -8.79727 2
      vertex -4.625 -8.01073 2
    endloop
  endfacet
  facet normal -0.406737 -0.913545 -0
    outer loop
      vertex -2.85841 -8.79727 2
      vertex -4.625 -8.01073 0
      vertex -2.85841 -8.79727 0
    endloop
  endfacet
  facet normal -0.866025 -0.5 0
    outer loop
      vertex -7.48341 -5.43701 0
      vertex -8.4503 -3.76231 2
      vertex -8.4503 -3.76231 0
    endloop
  endfacet
  facet normal -0.866025 -0.5 0
    outer loop
      vertex -8.4503 -3.76231 2
      vertex -7.48341 -5.43701 0
      vertex -7.48341 -5.43701 2
    endloop
  endfacet
  facet normal 0.406737 -0.913545 0
    outer loop
      vertex 2.85841 -8.79727 0
      vertex 4.625 -8.01073 2
      vertex 2.85841 -8.79727 2
    endloop
  endfacet
  facet normal 0.406737 -0.913545 0
    outer loop
      vertex 4.625 -8.01073 2
      vertex 2.85841 -8.79727 0
      vertex 4.625 -8.01073 0
    endloop
  endfacet
  facet normal -0.207912 -0.978148 0
    outer loop
      vertex -2.85841 -8.79727 0
      vertex -0.966887 -9.19933 2
      vertex -2.85841 -8.79727 2
    endloop
  endfacet
  facet normal -0.207912 -0.978148 -0
    outer loop
      vertex -0.966887 -9.19933 2
      vertex -2.85841 -8.79727 0
      vertex -0.966887 -9.19933 0
    endloop
  endfacet
  facet normal -0.587785 -0.809017 0
    outer loop
      vertex -6.18946 -6.87409 0
      vertex -4.625 -8.01073 2
      vertex -6.18946 -6.87409 2
    endloop
  endfacet
  facet normal -0.587785 -0.809017 -0
    outer loop
      vertex -4.625 -8.01073 2
      vertex -6.18946 -6.87409 0
      vertex -4.625 -8.01073 0
    endloop
  endfacet
  facet normal -0.743145 -0.66913 0
    outer loop
      vertex -6.18946 -6.87409 0
      vertex -7.48341 -5.43701 2
      vertex -7.48341 -5.43701 0
    endloop
  endfacet
  facet normal -0.743145 -0.66913 0
    outer loop
      vertex -7.48341 -5.43701 2
      vertex -6.18946 -6.87409 0
      vertex -6.18946 -6.87409 2
    endloop
  endfacet
  facet normal -0.951057 -0.309017 0
    outer loop
      vertex -8.4503 -3.76231 0
      vertex -9.04786 -1.92318 2
      vertex -9.04786 -1.92318 0
    endloop
  endfacet
  facet normal -0.951057 -0.309017 0
    outer loop
      vertex -9.04786 -1.92318 2
      vertex -8.4503 -3.76231 0
      vertex -8.4503 -3.76231 2
    endloop
  endfacet
  facet normal -0.994522 -0.104529 0
    outer loop
      vertex -9.04786 -1.92318 0
      vertex -9.25 0 2
      vertex -9.25 0 0
    endloop
  endfacet
  facet normal -0.994522 -0.104529 0
    outer loop
      vertex -9.25 0 2
      vertex -9.04786 -1.92318 0
      vertex -9.04786 -1.92318 2
    endloop
  endfacet
  facet normal -0.986361 -0.164595 0
    outer loop
      vertex 6 0 0
      vertex 5.6749 1.9482 2
      vertex 5.6749 1.9482 0
    endloop
  endfacet
  facet normal -0.986361 -0.164595 0
    outer loop
      vertex 5.6749 1.9482 2
      vertex 6 0 0
      vertex 6 0 2
    endloop
  endfacet
  facet normal 1 -0 0
    outer loop
      vertex -5.91817 -0.987567 2
      vertex -5.91817 0.987567 0
      vertex -5.91817 0.987567 2
    endloop
  endfacet
  facet normal 1 0 0
    outer loop
      vertex -5.91817 0.987567 0
      vertex -5.91817 -0.987567 2
      vertex -5.91817 -0.987567 0
    endloop
  endfacet
  facet normal -0.0825792 -0.996585 0
    outer loop
      vertex -0.495476 5.97951 0
      vertex 1.47291 5.8164 2
      vertex -0.495476 5.97951 2
    endloop
  endfacet
  facet normal -0.0825792 -0.996585 -0
    outer loop
      vertex 1.47291 5.8164 2
      vertex -0.495476 5.97951 0
      vertex 1.47291 5.8164 0
    endloop
  endfacet
  facet normal -0.401695 0.915773 0
    outer loop
      vertex 3.28169 -5.023 0
      vertex 1.47291 -5.8164 2
      vertex 3.28169 -5.023 2
    endloop
  endfacet
  facet normal -0.401695 0.915773 0
    outer loop
      vertex 1.47291 -5.8164 2
      vertex 3.28169 -5.023 0
      vertex 1.47291 -5.8164 0
    endloop
  endfacet
  facet normal -0.677282 -0.735724 0
    outer loop
      vertex 3.28169 5.023 0
      vertex 4.73484 3.68528 2
      vertex 3.28169 5.023 2
    endloop
  endfacet
  facet normal -0.677282 -0.735724 -0
    outer loop
      vertex 4.73484 3.68528 2
      vertex 3.28169 5.023 0
      vertex 4.73484 3.68528 0
    endloop
  endfacet
  facet normal -0.879474 -0.475947 0
    outer loop
      vertex 5.6749 1.9482 0
      vertex 4.73484 3.68528 2
      vertex 4.73484 3.68528 0
    endloop
  endfacet
  facet normal -0.879474 -0.475947 0
    outer loop
      vertex 4.73484 3.68528 2
      vertex 5.6749 1.9482 0
      vertex 5.6749 1.9482 2
    endloop
  endfacet
  facet normal -0.401695 -0.915773 0
    outer loop
      vertex 1.47291 5.8164 0
      vertex 3.28169 5.023 2
      vertex 1.47291 5.8164 2
    endloop
  endfacet
  facet normal -0.401695 -0.915773 -0
    outer loop
      vertex 3.28169 5.023 2
      vertex 1.47291 5.8164 0
      vertex 3.28169 5.023 0
    endloop
  endfacet
  facet normal 0.78914 -0.614213 0
    outer loop
      vertex -5.27684 2.85568 2
      vertex -4.06369 4.41434 0
      vertex -4.06369 4.41434 2
    endloop
  endfacet
  facet normal 0.78914 -0.614213 0
    outer loop
      vertex -4.06369 4.41434 0
      vertex -5.27684 2.85568 2
      vertex -5.27684 2.85568 0
    endloop
  endfacet
  facet normal 0.945817 -0.324699 0
    outer loop
      vertex -5.91817 0.987567 2
      vertex -5.27684 2.85568 0
      vertex -5.27684 2.85568 2
    endloop
  endfacet
  facet normal 0.945817 -0.324699 0
    outer loop
      vertex -5.27684 2.85568 0
      vertex -5.91817 0.987567 2
      vertex -5.91817 0.987567 0
    endloop
  endfacet
  facet normal 0.245486 -0.9694 0
    outer loop
      vertex -2.41017 5.49464 0
      vertex -0.495476 5.97951 2
      vertex -2.41017 5.49464 2
    endloop
  endfacet
  facet normal 0.245486 -0.9694 0
    outer loop
      vertex -0.495476 5.97951 2
      vertex -2.41017 5.49464 0
      vertex -0.495476 5.97951 0
    endloop
  endfacet
  facet normal 0.546948 0.837166 -0
    outer loop
      vertex -2.41017 -5.49464 0
      vertex -4.06369 -4.41434 2
      vertex -2.41017 -5.49464 2
    endloop
  endfacet
  facet normal 0.546948 0.837166 0
    outer loop
      vertex -4.06369 -4.41434 2
      vertex -2.41017 -5.49464 0
      vertex -4.06369 -4.41434 0
    endloop
  endfacet
  facet normal 0.945817 0.324699 0
    outer loop
      vertex -5.27684 -2.85568 2
      vertex -5.91817 -0.987567 0
      vertex -5.91817 -0.987567 2
    endloop
  endfacet
  facet normal 0.945817 0.324699 0
    outer loop
      vertex -5.91817 -0.987567 0
      vertex -5.27684 -2.85568 2
      vertex -5.27684 -2.85568 0
    endloop
  endfacet
  facet normal 0.546948 -0.837166 0
    outer loop
      vertex -4.06369 4.41434 0
      vertex -2.41017 5.49464 2
      vertex -4.06369 4.41434 2
    endloop
  endfacet
  facet normal 0.546948 -0.837166 0
    outer loop
      vertex -2.41017 5.49464 2
      vertex -4.06369 4.41434 0
      vertex -2.41017 5.49464 0
    endloop
  endfacet
  facet normal -0.986361 0.164595 0
    outer loop
      vertex 5.6749 -1.9482 0
      vertex 6 0 2
      vertex 6 0 0
    endloop
  endfacet
  facet normal -0.986361 0.164595 0
    outer loop
      vertex 6 0 2
      vertex 5.6749 -1.9482 0
      vertex 5.6749 -1.9482 2
    endloop
  endfacet
  facet normal 0.245486 0.9694 -0
    outer loop
      vertex -0.495476 -5.97951 0
      vertex -2.41017 -5.49464 2
      vertex -0.495476 -5.97951 2
    endloop
  endfacet
  facet normal 0.245486 0.9694 0
    outer loop
      vertex -2.41017 -5.49464 2
      vertex -0.495476 -5.97951 0
      vertex -2.41017 -5.49464 0
    endloop
  endfacet
  facet normal 0.78914 0.614213 0
    outer loop
      vertex -4.06369 -4.41434 2
      vertex -5.27684 -2.85568 0
      vertex -5.27684 -2.85568 2
    endloop
  endfacet
  facet normal 0.78914 0.614213 0
    outer loop
      vertex -5.27684 -2.85568 0
      vertex -4.06369 -4.41434 2
      vertex -4.06369 -4.41434 0
    endloop
  endfacet
  facet normal -0.677282 0.735724 0
    outer loop
      vertex 4.73484 -3.68528 0
      vertex 3.28169 -5.023 2
      vertex 4.73484 -3.68528 2
    endloop
  endfacet
  facet normal -0.677282 0.735724 0
    outer loop
      vertex 3.28169 -5.023 2
      vertex 4.73484 -3.68528 0
      vertex 3.28169 -5.023 0
    endloop
  endfacet
  facet normal -0.0825792 0.996585 0
    outer loop
      vertex 1.47291 -5.8164 0
      vertex -0.495476 -5.97951 2
      vertex 1.47291 -5.8164 2
    endloop
  endfacet
  facet normal -0.0825792 0.996585 0
    outer loop
      vertex -0.495476 -5.97951 2
      vertex 1.47291 -5.8164 0
      vertex -0.495476 -5.97951 0
    endloop
  endfacet
  facet normal -0.879474 0.475947 0
    outer loop
      vertex 4.73484 -3.68528 0
      vertex 5.6749 -1.9482 2
      vertex 5.6749 -1.9482 0
    endloop
  endfacet
  facet normal -0.879474 0.475947 0
    outer loop
      vertex 5.6749 -1.9482 2
      vertex 4.73484 -3.68528 0
      vertex 4.73484 -3.68528 2
    endloop
  endfacet
endsolid OpenSCAD_Model
