solid OpenSCAD_Model
  facet normal -1 0 0
    outer loop
      vertex 0 0 0
      vertex 0 53 1.5
      vertex 0 53 0
    endloop
  endfacet
  facet normal -1 -0 0
    outer loop
      vertex 0 53 1.5
      vertex 0 0 0
      vertex 0 0 1.5
    endloop
  endfacet
  facet normal 0 0 1
    outer loop
      vertex 64 53 1.5
      vertex 62.5 51.6 1.5
      vertex 64 0 1.5
    endloop
  endfacet
  facet normal 0 0 1
    outer loop
      vertex 64 53 1.5
      vertex 1.5 51.6 1.5
      vertex 62.5 51.6 1.5
    endloop
  endfacet
  facet normal 0 0 1
    outer loop
      vertex 1.5 51.6 1.5
      vertex 0 53 1.5
      vertex 1.5 1.4 1.5
    endloop
  endfacet
  facet normal -0 0 1
    outer loop
      vertex 0 53 1.5
      vertex 1.5 51.6 1.5
      vertex 64 53 1.5
    endloop
  endfacet
  facet normal -0 0 1
    outer loop
      vertex 62.5 1.4 1.5
      vertex 64 0 1.5
      vertex 62.5 51.6 1.5
    endloop
  endfacet
  facet normal -0 0 1
    outer loop
      vertex 1.5 1.4 1.5
      vertex 64 0 1.5
      vertex 62.5 1.4 1.5
    endloop
  endfacet
  facet normal 0 0 1
    outer loop
      vertex 1.5 1.4 1.5
      vertex 0 0 1.5
      vertex 64 0 1.5
    endloop
  endfacet
  facet normal 0 0 1
    outer loop
      vertex 0 0 1.5
      vertex 1.5 1.4 1.5
      vertex 0 53 1.5
    endloop
  endfacet
  facet normal 1 -0 0
    outer loop
      vertex 64 0 1.5
      vertex 64 53 0
      vertex 64 53 1.5
    endloop
  endfacet
  facet normal 1 0 0
    outer loop
      vertex 64 53 0
      vertex 64 0 1.5
      vertex 64 0 0
    endloop
  endfacet
  facet normal 0 0 -1
    outer loop
      vertex 5 19 0
      vertex 18 29.5 0
      vertex 31 19 0
    endloop
  endfacet
  facet normal 0 0 -1
    outer loop
      vertex 0 53 0
      vertex 8 29.5 0
      vertex 5 19 0
    endloop
  endfacet
  facet normal -0 0 -1
    outer loop
      vertex 18 29.5 0
      vertex 5 19 0
      vertex 8 29.5 0
    endloop
  endfacet
  facet normal 0 0 -1
    outer loop
      vertex 31 19 0
      vertex 64 0 0
      vertex 31 5 0
    endloop
  endfacet
  facet normal 0 0 -1
    outer loop
      vertex 0 0 0
      vertex 31 5 0
      vertex 64 0 0
    endloop
  endfacet
  facet normal -0 0 -1
    outer loop
      vertex 5 5 0
      vertex 0 0 0
      vertex 5 19 0
    endloop
  endfacet
  facet normal -0 0 -1
    outer loop
      vertex 31 5 0
      vertex 0 0 0
      vertex 5 5 0
    endloop
  endfacet
  facet normal 0 0 -1
    outer loop
      vertex 64 0 0
      vertex 31 19 0
      vertex 64 53 0
    endloop
  endfacet
  facet normal 0 0 -1
    outer loop
      vertex 18 49.5 0
      vertex 31 19 0
      vertex 18 29.5 0
    endloop
  endfacet
  facet normal 0 0 -1
    outer loop
      vertex 31 19 0
      vertex 18 49.5 0
      vertex 64 53 0
    endloop
  endfacet
  facet normal 0 0 -1
    outer loop
      vertex 0 53 0
      vertex 18 49.5 0
      vertex 8 49.5 0
    endloop
  endfacet
  facet normal 0 0 -1
    outer loop
      vertex 0 53 0
      vertex 5 19 0
      vertex 0 0 0
    endloop
  endfacet
  facet normal 0 0 -1
    outer loop
      vertex 18 49.5 0
      vertex 0 53 0
      vertex 64 53 0
    endloop
  endfacet
  facet normal 0 0 -1
    outer loop
      vertex 8 29.5 0
      vertex 0 53 0
      vertex 8 49.5 0
    endloop
  endfacet
  facet normal 0 -1 0
    outer loop
      vertex 0 0 0
      vertex 64 0 1.5
      vertex 0 0 1.5
    endloop
  endfacet
  facet normal 0 -1 -0
    outer loop
      vertex 64 0 1.5
      vertex 0 0 0
      vertex 64 0 0
    endloop
  endfacet
  facet normal 0 1 -0
    outer loop
      vertex 64 53 0
      vertex 0 53 1.5
      vertex 64 53 1.5
    endloop
  endfacet
  facet normal 0 1 0
    outer loop
      vertex 0 53 1.5
      vertex 64 53 0
      vertex 0 53 0
    endloop
  endfacet
  facet normal -1 0 0
    outer loop
      vertex 1.5 1.4 1.5
      vertex 1.5 51.6 3.5
      vertex 1.5 51.6 1.5
    endloop
  endfacet
  facet normal -1 -0 0
    outer loop
      vertex 1.5 51.6 3.5
      vertex 1.5 1.4 1.5
      vertex 1.5 1.4 3.5
    endloop
  endfacet
  facet normal 0 0 1
    outer loop
      vertex 62.5 51.6 3.5
      vertex 31 19 3.5
      vertex 62.5 1.4 3.5
    endloop
  endfacet
  facet normal 0 0 1
    outer loop
      vertex 62.5 51.6 3.5
      vertex 18 49.5 3.5
      vertex 31 19 3.5
    endloop
  endfacet
  facet normal -0 0 1
    outer loop
      vertex 1.5 51.6 3.5
      vertex 18 49.5 3.5
      vertex 62.5 51.6 3.5
    endloop
  endfacet
  facet normal 0 0 1
    outer loop
      vertex 1.5 51.6 3.5
      vertex 8 29.5 3.5
      vertex 8 49.5 3.5
    endloop
  endfacet
  facet normal 0 0 1
    outer loop
      vertex 1.5 1.4 3.5
      vertex 5 19 3.5
      vertex 1.5 51.6 3.5
    endloop
  endfacet
  facet normal 0 0 1
    outer loop
      vertex 8 29.5 3.5
      vertex 1.5 51.6 3.5
      vertex 5 19 3.5
    endloop
  endfacet
  facet normal 0 0 1
    outer loop
      vertex 18 49.5 3.5
      vertex 1.5 51.6 3.5
      vertex 8 49.5 3.5
    endloop
  endfacet
  facet normal -0 0 1
    outer loop
      vertex 31 5 3.5
      vertex 62.5 1.4 3.5
      vertex 31 19 3.5
    endloop
  endfacet
  facet normal 0 0 1
    outer loop
      vertex 1.5 1.4 3.5
      vertex 31 5 3.5
      vertex 5 5 3.5
    endloop
  endfacet
  facet normal 0 0 1
    outer loop
      vertex 31 5 3.5
      vertex 1.5 1.4 3.5
      vertex 62.5 1.4 3.5
    endloop
  endfacet
  facet normal 0 0 1
    outer loop
      vertex 5 19 3.5
      vertex 1.5 1.4 3.5
      vertex 5 5 3.5
    endloop
  endfacet
  facet normal -0 0 1
    outer loop
      vertex 18 29.5 3.5
      vertex 31 19 3.5
      vertex 18 49.5 3.5
    endloop
  endfacet
  facet normal 0 0 1
    outer loop
      vertex 5 19 3.5
      vertex 18 29.5 3.5
      vertex 8 29.5 3.5
    endloop
  endfacet
  facet normal 0 0 1
    outer loop
      vertex 18 29.5 3.5
      vertex 5 19 3.5
      vertex 31 19 3.5
    endloop
  endfacet
  facet normal 1 -0 0
    outer loop
      vertex 62.5 1.4 3.5
      vertex 62.5 51.6 1.5
      vertex 62.5 51.6 3.5
    endloop
  endfacet
  facet normal 1 0 0
    outer loop
      vertex 62.5 51.6 1.5
      vertex 62.5 1.4 3.5
      vertex 62.5 1.4 1.5
    endloop
  endfacet
  facet normal 0 1 -0
    outer loop
      vertex 62.5 51.6 1.5
      vertex 1.5 51.6 3.5
      vertex 62.5 51.6 3.5
    endloop
  endfacet
  facet normal 0 1 0
    outer loop
      vertex 1.5 51.6 3.5
      vertex 62.5 51.6 1.5
      vertex 1.5 51.6 1.5
    endloop
  endfacet
  facet normal 0 -1 0
    outer loop
      vertex 1.5 1.4 1.5
      vertex 62.5 1.4 3.5
      vertex 1.5 1.4 3.5
    endloop
  endfacet
  facet normal 0 -1 -0
    outer loop
      vertex 62.5 1.4 3.5
      vertex 1.5 1.4 1.5
      vertex 62.5 1.4 1.5
    endloop
  endfacet
  facet normal 1 -0 0
    outer loop
      vertex 5 5 3.5
      vertex 5 19 0
      vertex 5 19 3.5
    endloop
  endfacet
  facet normal 1 0 0
    outer loop
      vertex 5 19 0
      vertex 5 5 3.5
      vertex 5 5 0
    endloop
  endfacet
  facet normal -1 0 0
    outer loop
      vertex 31 5 0
      vertex 31 19 3.5
      vertex 31 19 0
    endloop
  endfacet
  facet normal -1 -0 0
    outer loop
      vertex 31 19 3.5
      vertex 31 5 0
      vertex 31 5 3.5
    endloop
  endfacet
  facet normal 0 1 -0
    outer loop
      vertex 31 5 0
      vertex 5 5 3.5
      vertex 31 5 3.5
    endloop
  endfacet
  facet normal 0 1 0
    outer loop
      vertex 5 5 3.5
      vertex 31 5 0
      vertex 5 5 0
    endloop
  endfacet
  facet normal 0 -1 0
    outer loop
      vertex 5 19 0
      vertex 31 19 3.5
      vertex 5 19 3.5
    endloop
  endfacet
  facet normal 0 -1 -0
    outer loop
      vertex 31 19 3.5
      vertex 5 19 0
      vertex 31 19 0
    endloop
  endfacet
  facet normal 1 -0 0
    outer loop
      vertex 8 29.5 3.5
      vertex 8 49.5 0
      vertex 8 49.5 3.5
    endloop
  endfacet
  facet normal 1 0 0
    outer loop
      vertex 8 49.5 0
      vertex 8 29.5 3.5
      vertex 8 29.5 0
    endloop
  endfacet
  facet normal -1 0 0
    outer loop
      vertex 18 29.5 0
      vertex 18 49.5 3.5
      vertex 18 49.5 0
    endloop
  endfacet
  facet normal -1 -0 0
    outer loop
      vertex 18 49.5 3.5
      vertex 18 29.5 0
      vertex 18 29.5 3.5
    endloop
  endfacet
  facet normal 0 1 -0
    outer loop
      vertex 18 29.5 0
      vertex 8 29.5 3.5
      vertex 18 29.5 3.5
    endloop
  endfacet
  facet normal 0 1 0
    outer loop
      vertex 8 29.5 3.5
      vertex 18 29.5 0
      vertex 8 29.5 0
    endloop
  endfacet
  facet normal 0 -1 0
    outer loop
      vertex 8 49.5 0
      vertex 18 49.5 3.5
      vertex 8 49.5 3.5
    endloop
  endfacet
  facet normal 0 -1 -0
    outer loop
      vertex 18 49.5 3.5
      vertex 8 49.5 0
      vertex 18 49.5 0
    endloop
  endfacet
endsolid OpenSCAD_Model
